# xmcd CD database file
#
# Track frame offsets:
#	150
#	34744
#	62011
#	85636
#	117385
#	149918
#	192630
#	213629
#	246561
#	267485
#
# Disc length: 3857 seconds
#
# Revision: 0
# Processed by: cddbd v1.5.2PL0 Copyright (c) Steve Scherf et al.
# Submitted via: CDex 1.51
#
DISCID=a50f0f0a
DTITLE=Windmaschine - don't git sassy
DYEAR=1900
DGENRE=Jazz
TTITLE0=Para Rio Contigo
TTITLE1=Take The A-Train
TTITLE2=I Wish You Love
TTITLE3=Don't Git Sassy
TTITLE4=Backstage Blues
TTITLE5=Nora À La Plage
TTITLE6=What's Going On
TTITLE7=Locked Rooms
TTITLE8=Sophisticated Lady
TTITLE9=It Don't Mean A Thing If It Ain't Got That Swing
EXTD=
EXTT0=
EXTT1=
EXTT2=
EXTT3=
EXTT4=
EXTT5=
EXTT6=
EXTT7=
EXTT8=
EXTT9=
PLAYORDER=
